<svg xmlns="http://www.w3.org/2000/svg" version="1.1" xmlns:xlink="http://www.w3.org/1999/xlink" xmlns:svgjs="http://svgjs.com/svgjs" width="49" height="50"><svg width="49" height="50" viewBox="0 0 49 50" fill="none" xmlns="http://www.w3.org/2000/svg">
<path d="M4.61696 1.24109C5.7096 4.95024 8.60125 7.30483 11.3024 9.80494C14.7841 13.0299 18.271 16.2496 21.4034 19.808C23.5066 22.197 23.8453 25.7738 22.242 28.6893C22.0357 29.065 21.9695 29.5174 21.5304 29.7608C21.324 28.7687 20.7208 28.0808 19.9007 27.4909C19.2102 26.9935 18.4773 26.5622 17.726 26.1707C16.4137 25.4908 15.1386 24.7315 13.6623 24.3505C12.6226 23.5039 11.3024 23.1256 10.104 22.5462C7.25199 21.1678 4.35505 19.8636 1.69621 18.173C1.57451 18.0963 1.38403 17.9587 1.27291 17.8635C-0.205988 16.6121 -0.245672 15.8793 0.484517 13.7813C1.55334 10.7071 2.42375 7.58262 3.47406 4.50313C3.84709 3.41314 4.03757 2.26759 4.64342 1.24109H4.61696Z" fill="#051F73"></path>
<path d="M34.1023 12.8871C34.1631 12.8606 34.2266 12.8341 34.2875 12.8077C34.679 12.7892 35.0177 12.9267 35.3775 13.0299C37.1659 13.5326 38.9596 14.0247 40.7719 14.4612C43.1873 15.0432 45.6319 15.5433 47.4547 17.2735C48.087 18.8847 47.9124 19.464 46.2853 20.4376C44.0154 21.7975 41.5947 22.8107 39.0813 23.615C37.8432 24.0092 36.6474 24.5516 35.4463 25.0675C35.2002 25.1733 34.7452 25.1521 34.7928 25.6257C34.2769 25.3982 33.7531 25.5225 33.2451 25.7421C31.9064 26.3215 30.5439 26.8559 29.2476 27.5226C28.1814 28.0702 27.0941 28.7025 27.0411 30.0809C25.2739 28.0729 24.6283 25.6918 25.1178 22.9959C25.2501 22.2631 25.4591 21.4721 25.9776 20.8424C26.6866 19.9852 27.2872 19.046 28.1549 18.3053C30.1974 16.5645 31.954 14.5273 34.1023 12.8897V12.8871Z" fill="#15368D"></path>
<path d="M43.5048 48.2113C42.7693 45.4678 40.8565 43.5259 38.8723 41.6475C35.7187 38.6633 32.4329 35.806 29.4672 32.6366C29.5095 31.8878 29.9698 31.3217 30.5757 30.9354C33.0123 29.3904 35.5574 28.0755 38.3405 27.3004C40.3988 28.0596 42.2799 29.1311 44.2085 30.1153C45.4308 30.7396 46.6319 31.4063 47.587 32.3905C48.2828 33.1075 48.3912 33.9303 48.0605 34.9144C47.2086 37.4701 46.4017 40.039 45.5684 42.5999C44.9546 44.481 44.5339 46.4175 43.6635 48.2351C43.6106 48.2219 43.5577 48.2139 43.5021 48.2086L43.5048 48.2113Z" fill="#051F73"></path>
<path d="M14.0987 36.851C14.7152 37.4225 15.5856 37.6156 16.3475 37.8405C19.8635 38.8723 22.779 40.7401 25.459 43.0206C27.5093 44.7667 29.5359 46.5498 31.9487 47.8568C32.8508 48.3462 33.798 48.7668 34.8853 49.2933C34.0572 49.5103 33.4673 49.2669 32.8641 49.2404C30.5386 49.1319 28.2263 48.9335 25.9035 48.796C24.2658 48.6981 22.6255 48.6452 20.9853 48.5737C18.718 48.4758 16.448 48.3832 14.1807 48.2853C12.2865 48.2033 10.3869 48.1689 8.50326 48.0208C7.35507 47.9308 6.28888 47.5948 5.91321 46.3752C6.23068 46.1265 6.21481 45.7561 6.32857 45.4387C6.92648 43.7825 7.92123 42.3751 9.26784 41.166C10.7732 39.8115 12.268 38.4463 13.768 37.0865C13.8791 37.0071 13.9903 36.9304 14.1014 36.851H14.0987Z" fill="#ADCDE6"></path>
<path d="M14.0989 36.851C13.9877 36.9304 13.8766 37.0071 13.7655 37.0865C13.5274 36.9516 13.3105 36.7637 13.0512 36.6923C11.3792 36.2373 9.7045 35.7849 8.01924 35.3748C6.11705 34.9092 4.23337 34.4224 2.46346 33.626C1.93963 33.3906 1.64861 32.798 0.971334 32.835C0.0427239 30.6709 1.14859 28.9724 3.61165 28.2951C5.2731 27.8374 6.57209 27.258 8.19915 26.6205C8.76795 26.4988 9.59074 25.9432 10.2019 25.7977C11.7072 26.5543 13.2523 27.2528 14.71 28.0835C16.3953 29.0465 18.2154 29.8904 19.152 31.7027C19.1731 31.745 19.3874 31.6842 19.5118 31.6736C19.562 31.8217 19.5806 31.9567 19.4298 32.0916C17.6493 33.6763 15.8741 35.2663 14.0962 36.8537L14.0989 36.851Z" fill="#15368D"></path>
<path d="M47.4547 17.2708C45.6345 15.5406 43.1873 15.038 40.7719 14.4586C38.9596 14.022 37.1659 13.53 35.3775 13.0273C35.0177 12.9268 34.6764 12.7892 34.2875 12.8051C35.5389 11.3817 37.1236 10.3023 38.4887 9.00331C40.2639 7.31277 41.883 5.48729 42.174 2.99777C43.2402 5.85503 44.3117 8.707 45.3726 11.5669C46.0763 13.4638 46.7589 15.366 47.452 17.2682L47.4547 17.2708Z" fill="#4676B1"></path>
<path d="M0.971313 32.835C1.64859 32.7979 1.93961 33.3906 2.46344 33.626C4.236 34.425 6.11967 34.9118 8.01922 35.3748C9.70448 35.7875 11.3792 36.2372 13.0512 36.6923C13.3104 36.7637 13.8607 36.7161 14.0988 36.851C12.5988 38.2109 10.7707 39.8115 9.26531 41.1634C7.91869 42.3724 6.92394 43.7825 6.32603 45.436C6.21227 45.7535 6.22815 46.1239 5.91067 46.3726C4.33918 42.1184 2.76504 37.8643 1.19619 33.6101C1.10359 33.3588 1.04539 33.0916 0.971313 32.8323V32.835Z" fill="#4676B1"></path>
<path d="M38.3406 27.303C35.5574 28.0782 33.0097 29.393 30.5757 30.9381C29.9699 31.3217 29.5095 31.8878 29.4672 32.6392C28.6603 31.7847 27.8507 30.9328 27.0438 30.0782C27.0967 28.6999 28.1841 28.0676 29.2503 27.5199C30.5466 26.8532 31.9091 26.3188 33.2478 25.7394C33.7557 25.5199 34.2769 25.3955 34.7955 25.623C36.0151 26.1204 37.2241 26.631 38.3432 27.3056L38.3406 27.303Z" fill="#02135F"></path>
<path d="M19.4324 32.0889C19.308 32.1021 19.1757 31.7423 19.1546 31.7C18.2154 29.8878 16.3978 29.0438 14.7126 28.0808C13.2549 27.2501 11.7098 26.5516 10.2045 25.795C11.313 25.1971 12.5009 24.8108 13.6623 24.3505C15.1385 24.7315 16.4137 25.4908 17.7259 26.1707C18.4773 26.5622 19.2101 26.9935 19.9006 27.4908C20.7208 28.0808 21.324 28.766 21.5303 29.7608C20.9351 30.4724 20.1678 31.5148 19.435 32.0889H19.4324Z" fill="#02145E"></path>
<path d="M43.6662 48.2377C43.6926 48.3224 43.69 48.4097 43.5736 48.407C43.5445 48.407 43.5286 48.28 43.5074 48.2086C43.563 48.2139 43.6159 48.2218 43.6688 48.2351L43.6662 48.2377Z" fill="#051F73"></path>
<path d="M31.4487 1.19876C31.4858 1.2067 31.5228 1.21463 31.5598 1.22257C31.5413 1.22786 31.5202 1.24109 31.5069 1.23845C31.4858 1.23051 31.4672 1.21199 31.4487 1.19876Z" fill="#DAE8F3"></path>
<path d="M24.078 0.751638C24.1653 0.770157 24.25 0.786031 24.3373 0.804551L24.3293 0.828361C24.242 0.809842 24.1547 0.793968 24.0701 0.775449L24.078 0.748993V0.751638Z" fill="#DAE8F3"></path>
<path d="M26.2421 0.947408C26.1548 0.931535 26.0675 0.915661 25.9802 0.899787L25.9882 0.875977C26.0755 0.894496 26.1601 0.913015 26.2474 0.93418L26.2421 0.950053V0.947408Z" fill="#DAE8F3"></path>
<path d="M27.8984 0.997681C27.9354 1.00826 27.9751 1.01885 28.0121 1.03207C27.9724 1.02943 27.9328 1.02414 27.8931 1.02149L27.8984 1.00033V0.997681Z" fill="#DAE8F3"></path>
<path d="M28.5835 1.02415C28.5464 1.01357 28.5068 1.00298 28.4697 0.992401C28.5094 0.997692 28.5491 1.00298 28.5888 1.00563L28.5835 1.0215V1.02415Z" fill="#DAE8F3"></path>
<path d="M30.4936 1.14053L30.3799 1.11408C30.3984 1.10614 30.4196 1.09291 30.4328 1.09556C30.4566 1.10085 30.4751 1.11937 30.4936 1.1326V1.13789V1.14053Z" fill="#DAE8F3"></path>
<path d="M34.2874 12.8077C33.4302 12.5802 32.618 11.9558 31.5598 11.5695C28.3321 9.92573 25.8082 8.44948 23.988 7.14078C21.9059 5.64072 22.07 5.6804 19.9138 4.3285C19.0434 3.7835 16.3634 1.50298 15.4163 1.24107C16.411 1.14847 18.1201 1.33631 19.8741 1.24107C22.0065 1.24107 22.1679 1.27546 24.5595 1.24107C26.2659 1.23313 26.1601 1.22519 27.676 1.21461C29.9089 1.19874 28.5888 1.19874 30.9143 1.14053C32.9514 1.19874 33.4805 1.19874 35.4171 1.19874C37.232 1.19874 38.5468 1.27546 39.3088 1.24107C40.994 1.22784 42.2004 2.66441 42.1793 3.00304C42.0602 4.75973 41.1131 6.1963 39.8776 7.59318C38.8035 9.31018 36.1843 11.3658 34.5123 12.5643C34.4276 12.6701 34.3747 12.7045 34.2901 12.8103L34.2874 12.8077Z" fill="#ADCDE6"></path>
</svg><style>@media (prefers-color-scheme: light) { :root { filter: none; } }
</style></svg>