<svg width="133" height="63" viewBox="0 0 133 63" fill="none" xmlns="http://www.w3.org/2000/svg">
<path d="M12.2494 8.00098C13.3102 11.602 16.1176 13.8879 18.74 16.3152C22.1201 19.4461 25.5054 22.572 28.5465 26.0266C30.5884 28.3459 30.9172 31.8185 29.3607 34.649C29.1603 35.0137 29.0961 35.4529 28.6698 35.6892C28.4694 34.726 27.8838 34.0582 27.0876 33.4855C26.4172 33.0026 25.7057 32.5839 24.9763 32.2038C23.7023 31.5437 22.4643 30.8065 21.0311 30.4367C20.0217 29.6148 18.74 29.2475 17.5765 28.685C14.8077 27.3468 11.9952 26.0805 9.41384 24.4393C9.29569 24.3648 9.11076 24.2312 9.00288 24.1388C7.5671 22.9239 7.52857 22.2124 8.23747 20.1756C9.27514 17.191 10.1202 14.1576 11.1399 11.1679C11.502 10.1097 11.6869 8.99755 12.2751 8.00098H12.2494Z" fill="#1EFFFF"/>
<path d="M40.8744 19.3072C40.9335 19.2815 40.9951 19.2558 41.0542 19.2302C41.4344 19.2122 41.7631 19.3457 42.1124 19.4459C43.8487 19.9339 45.5902 20.4117 47.3496 20.8355C49.6946 21.4005 52.0679 21.886 53.8376 23.5658C54.4514 25.13 54.2819 25.6925 52.7023 26.6377C50.4985 27.9579 48.1484 28.9416 45.7083 29.7224C44.5063 30.1051 43.3453 30.6317 42.1792 31.1325C41.9403 31.2352 41.4986 31.2147 41.5448 31.6745C41.0439 31.4536 40.5354 31.5743 40.0422 31.7875C38.7426 32.35 37.4198 32.8688 36.1613 33.5161C35.1262 34.0477 34.0705 34.6616 34.0191 35.9998C32.3034 34.0503 31.6767 31.7387 32.1519 29.1214C32.2803 28.4099 32.4832 27.6419 32.9866 27.0306C33.675 26.1985 34.258 25.2866 35.1005 24.5675C37.0833 22.8774 38.7888 20.8997 40.8744 19.3098V19.3072Z" fill="#F9BF29"/>
<path d="M21.4547 42.5728C22.0532 43.1275 22.8982 43.315 23.6379 43.5334C27.0514 44.5351 29.8819 46.3484 32.4838 48.5625C34.4743 50.2577 36.4418 51.9888 38.7843 53.2576C39.6601 53.7328 40.5796 54.1412 41.6353 54.6523C40.8313 54.8629 40.2586 54.6266 39.673 54.601C37.4153 54.4957 35.1704 54.303 32.9153 54.1695C31.3254 54.0744 29.7329 54.0231 28.1405 53.9537C25.9393 53.8587 23.7355 53.7688 21.5343 53.6737C19.6953 53.5941 17.8511 53.5607 16.0224 53.4169C14.9076 53.3296 13.8725 53.0034 13.5078 51.8193C13.816 51.5779 13.8006 51.2183 13.9111 50.9101C14.4915 49.3022 15.4573 47.9357 16.7646 46.762C18.2261 45.4469 19.6773 44.1215 21.1336 42.8013C21.2415 42.7243 21.3494 42.6498 21.4573 42.5728H21.4547Z" fill="white"/>
<path d="M53.838 23.5635C52.0709 21.8837 49.6951 21.3957 47.35 20.8332C45.5906 20.4094 43.8492 19.9317 42.1129 19.4437C41.7636 19.3461 41.4323 19.2125 41.0547 19.2279C42.2696 17.8461 43.8081 16.7981 45.1334 15.537C46.8569 13.8957 48.4288 12.1235 48.7113 9.70654C49.7464 12.4805 50.7867 15.2493 51.8166 18.0259C52.4999 19.8675 53.1625 21.7142 53.8355 23.5609L53.838 23.5635Z" fill="#C0F0FF"/>
<path d="M8.70898 38.6735C9.36652 38.6375 9.64905 39.2128 10.1576 39.4414C11.8785 40.2171 13.7073 40.6897 15.5514 41.1392C17.1875 41.5399 18.8134 41.9765 20.4367 42.4183C20.6884 42.4877 21.2226 42.4414 21.4538 42.5724C19.9975 43.8926 18.2226 45.4466 16.7612 46.7591C15.4538 47.9329 14.4881 49.3019 13.9076 50.9072C13.7972 51.2154 13.8126 51.575 13.5043 51.8164C11.9787 47.6863 10.4504 43.5562 8.92731 39.426C8.83741 39.182 8.7809 38.9226 8.70898 38.6709V38.6735Z" fill="#C0F0FF"/>
<path fill-rule="evenodd" clip-rule="evenodd" d="M44.9848 33.3018C44.9862 33.3014 44.9875 33.301 44.9889 33.3006C46.5535 33.8778 48.0127 34.6408 49.4711 35.4034C49.8753 35.6148 50.2795 35.8261 50.6858 36.0335C51.8724 36.6396 53.0385 37.2869 53.9657 38.2424C54.6413 38.9384 54.7466 39.7372 54.4255 40.6927C53.9051 42.2539 53.402 43.8202 52.8989 45.3865C52.6024 46.3094 52.306 47.2323 52.006 48.1542C51.8262 48.7052 51.6635 49.2611 51.5007 49.8172C51.1239 51.1044 50.7467 52.3929 50.1567 53.625C50.1059 53.6123 50.0552 53.6047 50.0019 53.5995C49.2874 50.9373 47.4309 49.0526 45.5052 47.2295C44.615 46.3872 43.714 45.5552 42.813 44.7233C40.6149 42.6937 38.4165 40.6638 36.3744 38.4814C36.3743 38.4822 36.3743 38.483 36.3742 38.4838C35.9825 38.069 35.5902 37.6549 35.1979 37.2407C34.8055 36.8265 34.4132 36.4124 34.0215 35.9975C34.0729 34.6594 35.1285 34.0455 36.1636 33.5138C37.1004 33.032 38.0727 32.6214 39.0447 32.211C39.3785 32.07 39.7123 31.929 40.0446 31.7852C40.5377 31.572 41.0437 31.4513 41.5471 31.6722C42.7288 32.1541 43.9002 32.6488 44.9848 33.3018ZM50.0019 53.5995C50.0013 53.5995 50.0006 53.5994 50 53.5993L50.0026 53.6019C50.0024 53.6011 50.0021 53.6003 50.0019 53.5995Z" fill="#1EFFFF"/>
<path fill-rule="evenodd" clip-rule="evenodd" d="M26.6327 37.9493C26.6317 37.9502 26.6308 37.9511 26.6298 37.9519C25.4774 38.9776 24.3273 40.0056 23.1771 41.0336C22.6021 41.5476 22.0271 42.0615 21.4517 42.5752L21.4543 42.5726C21.4004 42.6112 21.3464 42.6491 21.2925 42.6869C21.2385 42.7248 21.1846 42.7627 21.1307 42.8012C21.0575 42.7598 20.9864 42.7131 20.9153 42.6666C20.762 42.5661 20.6092 42.4659 20.4372 42.4185C18.8139 41.9767 17.1881 41.5375 15.5519 41.1394C13.7052 40.6874 11.8764 40.2148 10.1581 39.4417C9.97159 39.3578 9.81546 39.2273 9.66008 39.0974C9.39185 38.8732 9.12585 38.6509 8.7095 38.6737C7.80796 36.5727 8.88159 34.9237 11.2728 34.2662C12.5377 33.9177 13.5863 33.4966 14.7417 33.0326C15.0596 32.9049 15.3857 32.7739 15.7266 32.6403C16.0041 32.5809 16.3439 32.4152 16.6886 32.247C17.0298 32.0806 17.3758 31.9118 17.6709 31.8415C18.12 32.0672 18.5727 32.2876 19.0254 32.508C20.0462 33.0049 21.0672 33.502 22.0476 34.0607C22.2397 34.1704 22.4335 34.2786 22.6276 34.3868C24.0868 35.2009 25.5576 36.0215 26.3601 37.5744C26.3615 37.5772 26.3638 37.5795 26.3668 37.5814C26.365 37.5773 26.3635 37.5741 26.3624 37.5718C25.5571 36.0179 24.0866 35.1972 22.6269 34.3826C22.4338 34.2749 22.241 34.1673 22.0499 34.0581C21.0695 33.4994 20.0484 33.0023 19.0277 32.5054C18.5749 32.285 18.1222 32.0646 17.6732 31.8389C18.4716 31.4083 19.3124 31.0907 20.1537 30.773C20.4464 30.6625 20.7392 30.5519 21.0302 30.4365C22.2204 30.7437 23.276 31.3041 24.3294 31.8634C24.5444 31.9776 24.7594 32.0917 24.9754 32.2036C25.7048 32.5838 26.4163 33.0024 27.0867 33.4853C27.8829 34.0581 28.4685 34.7233 28.6689 35.6891C28.5437 35.8388 28.4106 36.0035 28.2718 36.1755C27.7698 36.7972 27.192 37.5127 26.6346 37.9493H26.6327Z" fill="#F9BF29"/>
<path d="M50.1607 53.6275C50.1865 53.7101 50.1839 53.7952 50.0704 53.7926C50.042 53.7926 50.0265 53.6688 50.0059 53.5991C50.06 53.6043 50.1116 53.612 50.1632 53.6249L50.1607 53.6275Z" fill="#051F73"/>
<path d="M38.2988 7.95996C38.3348 7.96767 38.3707 7.97537 38.4067 7.98308C38.3887 7.98821 38.3682 8.00106 38.3553 7.99849C38.3348 7.99078 38.3168 7.9728 38.2988 7.95996Z" fill="#DAE8F3"/>
<path d="M31.1425 7.52552C31.2272 7.5435 31.3094 7.55891 31.3942 7.57689L31.3865 7.6C31.3017 7.58202 31.217 7.56661 31.1348 7.54863L31.1425 7.52295V7.52552Z" fill="#DAE8F3"/>
<path d="M33.2426 7.71583C33.1578 7.70042 33.073 7.68501 32.9883 7.6696L32.996 7.64648C33.0807 7.66446 33.1629 7.68244 33.2477 7.70299L33.2426 7.7184V7.71583Z" fill="#DAE8F3"/>
<path d="M34.8509 7.76465C34.887 7.77497 34.9257 7.78529 34.9618 7.79819C34.9231 7.79561 34.8844 7.79045 34.8457 7.78787L34.8509 7.76723V7.76465Z" fill="#DAE8F3"/>
<path d="M35.5172 7.79024C35.4811 7.77992 35.4424 7.7696 35.4062 7.75928C35.445 7.76444 35.4837 7.7696 35.5224 7.77218L35.5172 7.78766V7.79024Z" fill="#DAE8F3"/>
<path d="M37.3722 7.90337L37.2617 7.87769C37.2797 7.86998 37.3002 7.85714 37.3131 7.85971C37.3362 7.86485 37.3542 7.88283 37.3722 7.89567V7.9008V7.90337Z" fill="#DAE8F3"/>
<path d="M41.0554 19.2303C40.2232 19.0094 39.4347 18.4033 38.4073 18.0283C35.2737 16.4324 32.8234 14.9992 31.0563 13.7286C29.0349 12.2723 29.1941 12.3108 27.1008 10.9983C26.2558 10.4692 23.6539 8.2552 22.7344 8.00092C23.7001 7.91103 25.3594 8.09339 27.0623 8.00092C29.1325 8.00092 29.2891 8.03431 31.6111 8.00092C33.2677 7.99322 33.165 7.98551 34.6367 7.97524C36.8045 7.95983 35.5229 7.95983 37.7805 7.90332C39.7583 7.95983 40.272 7.95983 42.1521 7.95983C43.9141 7.95983 45.1906 8.03431 45.9303 8.00092C47.5665 7.98808 48.7377 9.38277 48.7172 9.71153C48.6016 11.417 47.6821 12.8117 46.4826 14.1679C45.4398 15.8348 42.897 17.8305 41.2737 18.994C41.1915 19.0968 41.1401 19.1302 41.0579 19.2329L41.0554 19.2303Z" fill="white"/>
<path d="M59.4512 18.7065H70.5804V21.632H66.8458V30.555H63.1857V21.632H59.4512V18.7065Z" fill="white"/>
<path d="M72.2832 30.5545V18.7061H78.3859C79.516 18.7061 80.3816 18.8037 80.9801 18.9963C81.5785 19.1889 82.0614 19.5511 82.4261 20.0751C82.7934 20.6016 82.9758 21.2411 82.9758 21.9937C82.9758 22.6512 82.8371 23.2189 82.5546 23.694C82.272 24.1692 81.8893 24.5571 81.3987 24.855C81.0854 25.0425 80.6565 25.1992 80.1119 25.3225C80.5486 25.4689 80.8645 25.6127 81.0648 25.7591C81.1984 25.8567 81.3936 26.0648 81.6505 26.3833C81.9073 26.7017 82.0768 26.9457 82.1642 27.1204L83.9364 30.5545H79.8012L77.844 26.9329C77.5974 26.4629 77.3739 26.1598 77.1813 26.0185C76.9167 25.8362 76.6188 25.7437 76.2849 25.7437H75.9613V30.5519H72.2832V30.5545ZM75.9613 23.5065H77.5049C77.6719 23.5065 77.9955 23.4526 78.4758 23.3447C78.7173 23.2959 78.915 23.1726 79.0691 22.9723C79.2232 22.772 79.3003 22.5434 79.3003 22.2865C79.3003 21.9038 79.1796 21.611 78.9356 21.4055C78.6941 21.2001 78.2369 21.0973 77.5691 21.0973H75.9613V23.5065Z" fill="white"/>
<path d="M92.5362 18.7062H96.1886V25.7644C96.1886 26.4656 96.0808 27.1257 95.8624 27.7472C95.6441 28.3688 95.3025 28.9133 94.835 29.3782C94.3701 29.8431 93.8796 30.1719 93.3684 30.3594C92.657 30.6239 91.8042 30.7549 90.8077 30.7549C90.2323 30.7549 89.603 30.7138 88.9198 30.6342C88.2392 30.5546 87.669 30.3928 87.2118 30.1539C86.7546 29.915 86.3359 29.5734 85.9558 29.1317C85.5757 28.6899 85.3162 28.2353 85.175 27.7678C84.9489 27.0152 84.8359 26.3474 84.8359 25.7644V18.7062H88.4883V25.9339C88.4883 26.5812 88.6681 27.0846 89.0251 27.4467C89.3822 27.8115 89.8804 27.9913 90.5149 27.9913C91.1493 27.9913 91.6399 27.8115 91.9969 27.4544C92.3539 27.0974 92.5337 26.5889 92.5337 25.9313V18.7036L92.5362 18.7062Z" fill="white"/>
<path d="M98.5742 18.7061H103.388L105.245 25.9158L107.089 18.7061H111.9V30.5545H108.902V21.5185L106.593 30.5545H103.878L101.572 21.5185V30.5545H98.5742V18.7061Z" fill="#1EFFFF"/>
<path d="M114.227 18.7061H124.038V21.236H117.897V23.1187H123.594V25.5357H117.897V27.8704H124.218V30.5545H114.229V18.7061H114.227Z" fill="#1EFFFF"/>
<path d="M63.375 34.5586H67.0351V43.4892H72.75V46.407H63.375V34.5586Z" fill="white"/>
<path d="M81.6994 44.4524H77.5436L76.9657 46.407H73.2285L77.6823 34.5586H81.6763L86.1274 46.407H82.2927L81.6994 44.4524ZM80.9391 41.889L79.6317 37.6305L78.3372 41.889H80.9391Z" fill="white"/>
<path d="M87.2955 34.5586H94.1483C95.2912 34.5586 96.1671 34.8411 96.7784 35.4062C97.3897 35.9713 97.6953 36.6725 97.6953 37.5072C97.6953 38.2084 97.477 38.8094 97.0404 39.3103C96.7501 39.6442 96.3238 39.9087 95.7638 40.1014C96.614 40.3069 97.2407 40.6587 97.644 41.157C98.0446 41.6553 98.245 42.282 98.245 43.0372C98.245 43.651 98.1011 44.2032 97.816 44.6938C97.5309 45.1844 97.1405 45.5722 96.6448 45.8573C96.3366 46.0346 95.8743 46.1656 95.2553 46.2452C94.4308 46.3531 93.8837 46.407 93.614 46.407H87.293V34.5586H87.2955ZM90.989 39.2075H92.5815C93.1517 39.2075 93.5498 39.1099 93.7733 38.9122C93.9967 38.7144 94.1097 38.4319 94.1097 38.0594C94.1097 37.7153 93.9967 37.4456 93.7733 37.2504C93.5498 37.0577 93.1594 36.9601 92.6046 36.9601H90.989V39.2075ZM90.989 43.8616H92.8563C93.4856 43.8616 93.9299 43.7486 94.1893 43.5252C94.4488 43.3017 94.5772 43.0012 94.5772 42.6236C94.5772 42.2743 94.4488 41.9918 94.1919 41.7786C93.9351 41.5654 93.4882 41.4601 92.846 41.4601H90.9864V43.8591L90.989 43.8616Z" fill="white"/>
<path d="M99.5233 42.4876L103.006 42.2693C103.081 42.8344 103.235 43.2659 103.466 43.5613C103.844 44.0416 104.383 44.2804 105.082 44.2804C105.605 44.2804 106.006 44.1572 106.289 43.9132C106.571 43.6691 106.713 43.384 106.713 43.0604C106.713 42.7368 106.579 42.4774 106.309 42.2359C106.04 41.9945 105.415 41.7633 104.434 41.5502C102.829 41.1906 101.683 40.7103 101 40.1118C100.309 39.5133 99.9651 38.7505 99.9651 37.8259C99.9651 37.2171 100.142 36.6418 100.494 36.0998C100.846 35.5579 101.378 35.1315 102.087 34.8233C102.796 34.5125 103.766 34.3584 104.999 34.3584C106.512 34.3584 107.668 34.6409 108.462 35.2034C109.255 35.7659 109.728 36.6623 109.879 37.8901L106.427 38.093C106.335 37.5587 106.142 37.1709 105.849 36.9294C105.557 36.688 105.151 36.5647 104.632 36.5647C104.206 36.5647 103.885 36.6546 103.671 36.8344C103.456 37.0142 103.348 37.2351 103.348 37.4919C103.348 37.6794 103.438 37.8515 103.615 38.0005C103.787 38.1572 104.198 38.301 104.843 38.4371C106.443 38.7813 107.588 39.1306 108.282 39.4825C108.975 39.8344 109.479 40.2736 109.792 40.795C110.108 41.3164 110.265 41.902 110.265 42.5493C110.265 43.3096 110.054 44.0082 109.635 44.6503C109.214 45.2924 108.629 45.7779 107.873 46.1092C107.118 46.4405 106.168 46.6075 105.02 46.6075C103.004 46.6075 101.609 46.2197 100.833 45.444C100.058 44.6683 99.6184 43.682 99.5156 42.4851L99.5233 42.4876Z" fill="white"/>
</svg>
