<svg width="133" height="63" viewBox="0 0 133 63" fill="none" xmlns="http://www.w3.org/2000/svg">
<path d="M12.2496 8.00098C13.3104 11.6021 16.1178 13.8881 18.7403 16.3154C22.1205 19.4464 25.5059 22.5724 28.547 26.0271C30.589 28.3465 30.9178 31.8192 29.3613 34.6497C29.1609 35.0144 29.0967 35.4537 28.6703 35.69C28.47 34.7268 27.8843 34.0589 27.0881 33.4862C26.4177 33.0033 25.7062 32.5846 24.9767 32.2044C23.7027 31.5443 22.4647 30.8072 21.0314 30.4373C20.022 29.6153 18.7403 29.248 17.5767 28.6855C14.8078 27.3473 11.9953 26.081 9.41388 24.4397C9.29573 24.3652 9.11079 24.2317 9.00291 24.1392C7.56709 22.9243 7.52856 22.2128 8.23748 20.1759C9.27518 17.1913 10.1202 14.1578 11.1399 11.168C11.5021 10.1098 11.6871 8.99757 12.2752 8.00098H12.2496Z" fill="#051F73"/>
<path d="M40.8766 19.3077C40.9357 19.282 40.9973 19.2563 41.0564 19.2306C41.4366 19.2127 41.7653 19.3462 42.1147 19.4464C43.851 19.9344 45.5925 20.4122 47.3519 20.836C49.697 21.4011 52.0704 21.8865 53.8401 23.5664C54.454 25.1306 54.2845 25.6931 52.7048 26.6383C50.501 27.9586 48.1508 28.9423 45.7106 29.7232C44.5086 30.1059 43.3476 30.6324 42.1814 31.1333C41.9426 31.2361 41.5008 31.2155 41.547 31.6753C41.0461 31.4544 40.5376 31.5751 40.0444 31.7883C38.7447 32.3508 37.4219 32.8697 36.1633 33.5169C35.1282 34.0486 34.0725 34.6625 34.0212 36.0007C32.3054 34.0512 31.6786 31.7395 32.1538 29.1221C32.2822 28.4106 32.4852 27.6427 32.9886 27.0313C33.677 26.1991 34.26 25.2873 35.1025 24.5681C37.0854 22.878 38.791 20.9002 40.8766 19.3103V19.3077Z" fill="#15368D"/>
<path d="M50.0037 53.6031C49.2897 50.9395 47.4326 49.0542 45.5062 47.2305C42.4445 44.3332 39.2543 41.5592 36.375 38.482C36.4161 37.7551 36.863 37.2055 37.4512 36.8305C39.8169 35.3304 42.2878 34.0539 44.9899 33.3013C46.9883 34.0384 48.8145 35.0787 50.687 36.0342C51.8736 36.6404 53.0398 37.2877 53.967 38.2432C54.6425 38.9392 54.7479 39.7381 54.4268 40.6936C53.5997 43.1748 52.8163 45.6688 52.0072 48.1552C51.4113 49.9814 51.0029 51.8616 50.1579 53.6262C50.1065 53.6134 50.0551 53.6057 50.0012 53.6005L50.0037 53.6031Z" fill="#051F73"/>
<path d="M21.4549 42.5737C22.0534 43.1285 22.8984 43.316 23.6382 43.5344C27.0518 44.5361 29.8823 46.3495 32.4843 48.5636C34.4749 50.2588 36.4424 51.99 38.7849 53.2589C39.6608 53.7341 40.5804 54.1425 41.636 54.6536C40.8321 54.8643 40.2593 54.6279 39.6737 54.6023C37.4159 54.497 35.171 54.3043 32.9158 54.1707C31.3259 54.0757 29.7334 54.0243 28.1409 53.955C25.9396 53.8599 23.7358 53.7701 21.5345 53.675C19.6955 53.5954 17.8512 53.562 16.0224 53.4182C14.9077 53.3308 13.8725 53.0046 13.5078 51.8205C13.816 51.5791 13.8006 51.2195 13.9111 50.9113C14.4916 49.3033 15.4573 47.9369 16.7647 46.763C18.2262 45.4479 19.6775 44.1226 21.1338 42.8023C21.2417 42.7253 21.3496 42.6508 21.4575 42.5737H21.4549Z" fill="#ADCDE6"/>
<path d="M21.4547 42.5737C21.3468 42.6508 21.2389 42.7252 21.131 42.8023C20.8999 42.6713 20.6892 42.4889 20.4375 42.4196C18.8142 41.9778 17.1883 41.5386 15.5521 41.1404C13.7053 40.6884 11.8765 40.2158 10.1582 39.4426C9.6496 39.214 9.36706 38.6387 8.70951 38.6746C7.80794 36.5736 8.8816 34.9245 11.2729 34.267C12.886 33.8226 14.1471 33.2601 15.7268 32.6411C16.279 32.523 17.0779 31.9836 17.6712 31.8423C19.1327 32.5769 20.6327 33.255 22.048 34.0615C23.6842 34.9965 25.4513 35.8158 26.3606 37.5753C26.3811 37.6164 26.5892 37.5573 26.7099 37.547C26.7587 37.6909 26.7767 37.8219 26.6303 37.9529C24.9017 39.4914 23.1782 41.0351 21.4521 42.5763L21.4547 42.5737Z" fill="#15368D"/>
<path d="M53.8403 23.5639C52.0732 21.884 49.6973 21.396 47.3522 20.8335C45.5927 20.4097 43.8512 19.9319 42.1149 19.4439C41.7656 19.3463 41.4342 19.2128 41.0566 19.2282C42.2716 17.8463 43.8101 16.7983 45.1355 15.5372C46.859 13.8959 48.431 12.1236 48.7135 9.70654C49.7486 12.4806 50.7889 15.2495 51.8189 18.0261C52.5021 19.8677 53.1648 21.7145 53.8378 23.5613L53.8403 23.5639Z" fill="#4676B1"/>
<path d="M8.71094 38.6749C9.36849 38.639 9.65103 39.2143 10.1596 39.4429C11.8805 40.2186 13.7093 40.6912 15.5536 41.1407C17.1897 41.5414 18.8156 41.9781 20.4389 42.4199C20.6907 42.4892 21.2249 42.443 21.4561 42.574C19.9997 43.8942 18.2249 45.4482 16.7633 46.7607C15.456 47.9346 14.4902 49.3036 13.9097 50.9089C13.7992 51.2172 13.8147 51.5768 13.5064 51.8182C11.9807 47.688 10.4524 43.5578 8.92926 39.4275C8.83936 39.1835 8.78286 38.9241 8.71094 38.6724V38.6749Z" fill="#4676B1"/>
<path d="M44.9912 33.3037C42.289 34.0563 39.8155 35.3329 37.4525 36.8329C36.8643 37.2054 36.4173 37.755 36.3762 38.4845C35.5928 37.6549 34.8068 36.8278 34.0234 35.9981C34.0748 34.6599 35.1305 34.046 36.1656 33.5144C37.4242 32.8671 38.747 32.3482 40.0467 31.7857C40.5399 31.5725 41.0459 31.4518 41.5493 31.6727C42.7334 32.1556 43.9072 32.6513 44.9937 33.3063L44.9912 33.3037Z" fill="#02135F"/>
<path d="M26.6329 37.9505C26.5122 37.9634 26.3838 37.614 26.3632 37.5729C25.4514 35.8135 23.6868 34.9941 22.0506 34.0592C20.6354 33.2526 19.1353 32.5745 17.6738 31.8399C18.7501 31.2594 19.9033 30.8844 21.0309 30.4375C22.4642 30.8074 23.7022 31.5445 24.9762 32.2047C25.7057 32.5848 26.4172 33.0035 27.0876 33.4864C27.8838 34.0592 28.4695 34.7244 28.6698 35.6902C28.0919 36.3811 27.347 37.3931 26.6355 37.9505H26.6329Z" fill="#02145E"/>
<path d="M50.1619 53.6288C50.1876 53.711 50.185 53.7958 50.072 53.7932C50.0438 53.7932 50.0284 53.6699 50.0078 53.6006C50.0618 53.6057 50.1131 53.6134 50.1645 53.6263L50.1619 53.6288Z" fill="#051F73"/>
<path d="M38.2988 7.95996C38.3348 7.96767 38.3707 7.97537 38.4067 7.98308C38.3887 7.98822 38.3682 8.00106 38.3553 7.99849C38.3348 7.99078 38.3168 7.9728 38.2988 7.95996Z" fill="#DAE8F3"/>
<path d="M31.1444 7.52601C31.2292 7.54399 31.3114 7.5594 31.3961 7.57738L31.3884 7.60049C31.3037 7.58251 31.2189 7.5671 31.1367 7.54912L31.1444 7.52344V7.52601Z" fill="#DAE8F3"/>
<path d="M33.2445 7.71584C33.1598 7.70042 33.075 7.68501 32.9902 7.6696L32.9979 7.64648C33.0827 7.66446 33.1649 7.68244 33.2497 7.70299L33.2445 7.7184V7.71584Z" fill="#DAE8F3"/>
<path d="M34.8528 7.76465C34.8888 7.77492 34.9273 7.7852 34.9632 7.79804C34.9247 7.79547 34.8862 7.79033 34.8477 7.78777L34.8528 7.76722V7.76465Z" fill="#DAE8F3"/>
<path d="M35.5186 7.79059C35.4827 7.78031 35.4442 7.77004 35.4082 7.75977C35.4467 7.7649 35.4853 7.77004 35.5238 7.77261L35.5186 7.78802V7.79059Z" fill="#DAE8F3"/>
<path d="M37.3722 7.90337L37.2617 7.87769C37.2797 7.86998 37.3002 7.85714 37.3131 7.85971C37.3362 7.86485 37.3542 7.88283 37.3722 7.89567V7.90081V7.90337Z" fill="#DAE8F3"/>
<path d="M41.0559 19.2306C40.2236 19.0097 39.4351 18.4036 38.4077 18.0286C35.274 16.4326 32.8236 14.9994 31.0565 13.7288C29.035 12.2724 29.1943 12.311 27.1009 10.9984C26.2559 10.4693 23.6539 8.25521 22.7344 8.00093C23.7002 7.91103 25.3594 8.09339 27.0624 8.00093C29.1326 8.00093 29.2893 8.03432 31.6113 8.00093C33.268 7.99322 33.1653 7.98551 34.637 7.97524C36.8049 7.95983 35.5232 7.95983 37.781 7.90332C39.7587 7.95983 40.2724 7.95983 42.1526 7.95983C43.9147 7.95983 45.1912 8.03432 45.931 8.00093C47.5671 7.98808 48.7384 9.38281 48.7178 9.71158C48.6023 11.4171 47.6827 12.8118 46.4832 14.168C45.4404 15.835 42.8975 17.8308 41.2742 18.9943C41.192 19.0971 41.1406 19.1305 41.0584 19.2332L41.0559 19.2306Z" fill="#ADCDE6"/>
<path d="M59.4531 18.7065H70.5827V21.6321H66.848V30.5553H63.1878V21.6321H59.4531V18.7065Z" fill="#051F73"/>
<path d="M72.2852 30.5553V18.7065H78.388C79.5182 18.7065 80.3838 18.8041 80.9823 18.9968C81.5807 19.1894 82.0636 19.5516 82.4284 20.0756C82.7957 20.6021 82.978 21.2417 82.978 21.9943C82.978 22.6518 82.8393 23.2195 82.5568 23.6947C82.2743 24.1699 81.8915 24.5577 81.4009 24.8557C81.0876 25.0432 80.6586 25.1998 80.1141 25.3231C80.5508 25.4695 80.8667 25.6134 81.067 25.7598C81.2006 25.8574 81.3958 26.0654 81.6527 26.3839C81.9095 26.7024 82.079 26.9465 82.1664 27.1211L83.9387 30.5553H79.8033L77.8461 26.9336C77.5995 26.4636 77.376 26.1605 77.1834 26.0192C76.9188 25.8368 76.6209 25.7444 76.287 25.7444H75.9633V30.5527H72.2852V30.5553ZM75.9633 23.5072H77.507C77.674 23.5072 77.9976 23.4532 78.4779 23.3453C78.7194 23.2965 78.9172 23.1733 79.0713 22.9729C79.2254 22.7726 79.3024 22.544 79.3024 22.2871C79.3024 21.9044 79.1817 21.6116 78.9377 21.4061C78.6963 21.2006 78.2391 21.0979 77.5712 21.0979H75.9633V23.5072Z" fill="#051F73"/>
<path d="M92.5384 18.7067H96.1909V25.7651C96.1909 26.4663 96.083 27.1264 95.8647 27.748C95.6464 28.3696 95.3047 28.9141 94.8373 29.379C94.3724 29.8439 93.8818 30.1727 93.3706 30.3602C92.6591 30.6248 91.8064 30.7557 90.8098 30.7557C90.2344 30.7557 89.6051 30.7147 88.9219 30.635C88.2412 30.5554 87.671 30.3936 87.2138 30.1547C86.7566 29.9158 86.3379 29.5742 85.9578 29.1324C85.5776 28.6906 85.3182 28.236 85.1769 27.7685C84.9509 27.0159 84.8379 26.3481 84.8379 25.7651V18.7067H88.4904V25.9346C88.4904 26.5819 88.6702 27.0853 89.0272 27.4475C89.3842 27.8122 89.8825 27.992 90.517 27.992C91.1514 27.992 91.642 27.8122 91.999 27.4552C92.356 27.0981 92.5358 26.5896 92.5358 25.932V18.7041L92.5384 18.7067Z" fill="#051F73"/>
<path d="M98.5781 18.7065H103.392L105.249 25.9165L107.093 18.7065H111.904V30.5553H108.906V21.5191L106.597 30.5553H103.882L101.576 21.5191V30.5553H98.5781V18.7065Z" fill="#4676B1"/>
<path d="M114.23 18.7065H124.042V21.2366H117.901V23.1193H123.598V25.5363H117.901V27.8711H124.222V30.5553H114.233V18.7065H114.23Z" fill="#4676B1"/>
<path d="M63.377 34.5601H67.0371V43.4909H72.7522V46.4088H63.377V34.5601Z" fill="#051F73"/>
<path d="M81.7015 44.4541H77.5456L76.9677 46.4088H73.2305L77.6843 34.5601H81.6784L86.1297 46.4088H82.2949L81.7015 44.4541ZM80.9413 41.8907L79.6339 37.632L78.3393 41.8907H80.9413Z" fill="#051F73"/>
<path d="M87.2975 34.5601H94.1504C95.2934 34.5601 96.1693 34.8426 96.7806 35.4077C97.3919 35.9728 97.6976 36.674 97.6976 37.5088C97.6976 38.21 97.4792 38.811 97.0426 39.3119C96.7523 39.6458 96.326 39.9104 95.766 40.103C96.6162 40.3085 97.2429 40.6604 97.6462 41.1587C98.0469 41.657 98.2472 42.2837 98.2472 43.0388C98.2472 43.6527 98.1034 44.205 97.8183 44.6956C97.5332 45.1862 97.1428 45.574 96.647 45.8591C96.3388 46.0363 95.8765 46.1673 95.2574 46.247C94.4329 46.3548 93.8858 46.4088 93.6161 46.4088H87.2949V34.5601H87.2975ZM90.9911 39.2091H92.5836C93.1538 39.2091 93.5519 39.1115 93.7754 38.9138C93.9988 38.716 94.1119 38.4334 94.1119 38.061C94.1119 37.7168 93.9988 37.4471 93.7754 37.2519C93.5519 37.0593 93.1615 36.9617 92.6067 36.9617H90.9911V39.2091ZM90.9911 43.8634H92.8584C93.4877 43.8634 93.9321 43.7503 94.1915 43.5269C94.4509 43.3034 94.5793 43.0029 94.5793 42.6253C94.5793 42.276 94.4509 41.9934 94.1941 41.7803C93.9372 41.5671 93.4903 41.4618 92.8481 41.4618H90.9885V43.8608L90.9911 43.8634Z" fill="#051F73"/>
<path d="M99.5272 42.4893L103.01 42.271C103.085 42.8361 103.239 43.2676 103.47 43.563C103.848 44.0433 104.387 44.2822 105.086 44.2822C105.61 44.2822 106.01 44.1589 106.293 43.9149C106.575 43.6709 106.717 43.3858 106.717 43.0621C106.717 42.7385 106.583 42.4791 106.313 42.2376C106.044 41.9962 105.419 41.765 104.438 41.5518C102.833 41.1922 101.687 40.7119 101.004 40.1134C100.313 39.5149 99.969 38.7521 99.969 37.8274C99.969 37.2187 100.146 36.6433 100.498 36.1013C100.85 35.5594 101.382 35.133 102.091 34.8248C102.8 34.514 103.77 34.3599 105.003 34.3599C106.516 34.3599 107.672 34.6424 108.466 35.2049C109.259 35.7674 109.732 36.6639 109.884 37.8916L106.431 38.0945C106.339 37.5603 106.146 37.1724 105.854 36.931C105.561 36.6895 105.155 36.5662 104.636 36.5662C104.21 36.5662 103.889 36.6561 103.675 36.8359C103.46 37.0157 103.352 37.2366 103.352 37.4935C103.352 37.681 103.442 37.8531 103.619 38.0021C103.791 38.1588 104.202 38.3026 104.847 38.4387C106.447 38.7829 107.592 39.1322 108.286 39.4841C108.98 39.836 109.483 40.2752 109.796 40.7967C110.112 41.3181 110.269 41.9037 110.269 42.551C110.269 43.3113 110.058 44.0099 109.64 44.6521C109.218 45.2942 108.633 45.7796 107.878 46.111C107.122 46.4423 106.172 46.6093 105.024 46.6093C103.008 46.6093 101.613 46.2214 100.837 45.4457C100.061 44.67 99.6223 43.6837 99.5195 42.4868L99.5272 42.4893Z" fill="#051F73"/>
</svg>
